<svg id="familiar-logo" version="1.1" xmlns="http://www.w3.org/2000/svg" xmlns:xlink="http://www.w3.org/1999/xlink" x="0px" y="0px" height="55px" viewBox="0 0 216 40" enable-background="new 0 0 216 40" xml:space="preserve">
<g id="F">
<polygon fill="#FFFFFF" points="6.601,1.233 0.071,7.618 0.073,7.618 0.071,7.619 0.071,24.646 0.071,24.801 0.071,24.829
		0.071,25.062 0.071,39.27 6.69,32.885 6.69,24.432 12.683,24.432 18.965,18.415 6.69,18.415 6.69,18.155 6.69,7.618 16.387,7.618
		22.669,1.233 	"></polygon>
</g>
<g id="A1">
<path fill="#FFFFFF" d="M32.994,18.148v-0.345c0-0.066-0.026-0.126-0.071-0.169l0.109-0.109l0.029-9.775l-0.007,0.006
		c0.032-0.343,0.093-0.697,0.187-1.072c0.435-0.079,0.896-0.125,1.385-0.125c5.164,0,9.364,3.657,9.364,8.154v3.436L32.994,18.148
		L32.994,18.148z M32.513,18.044v0.104h-0.104L32.513,18.044z M31.993,6.437c0.026-0.013,0.054-0.023,0.08-0.036
		c-0.012,0.029-0.094,0.104-0.122,0.113C31.966,6.487,31.979,6.462,31.993,6.437 M33.089,5.426c0.019-0.01,0.042,0.013,0.033,0.034
		c-0.021,0.007-0.042,0.015-0.062,0.021C33.07,5.463,33.079,5.443,33.089,5.426 M50.617,7.279c-0.74-3.994-4.687-7.039-9.469-7.039
		c-1.96,0-3.752,0.674-5.178,1.798c-0.427,0.23-0.835,0.5-1.224,0.807c-0.407,0.317-0.778,0.664-1.108,1.03
		c-0.362,0.282-0.727,0.62-1.084,1.007c-0.407,0.319-0.767,0.653-1.098,1.019c-0.402,0.324-0.765,0.664-1.077,1.012
		c-0.409,0.313-0.784,0.662-1.113,1.037c-2.036,1.614-3.227,4.022-3.265,6.615c-0.001,0.096-0.085,3.584-0.085,3.584h-0.938
		l-6.283,6.385h7.221v0.047v0.009v2.823V39.75c0,0,7.077-6.445,7.077-6.579v-8.637H43.99V40l6.694-6.28V7.664V7.223L50.617,7.279z"></path>
</g>
<g id="M">
<path fill="#FFFFFF" d="M62.888,5.433c0.022-0.011,0.05,0.01,0.04,0.033C62.905,5.473,62.875,5.453,62.888,5.433 M80.97,5.438
		c0.019-0.011,0.039-0.018,0.058-0.027c-0.007,0.019-0.017,0.036-0.024,0.055c-0.021,0.007-0.039,0.016-0.061,0.021
		C80.954,5.47,80.959,5.454,80.97,5.438 M98.874,33.277V8.643C98.874,3.878,94.461,0,89.039,0c-2.451,0-4.791,1.042-6.423,2.858
		c-0.375,0.287-0.74,0.627-1.102,1.024c-0.378,0.293-0.735,0.629-1.067,0.998c-0.179,0.137-0.326,0.264-0.46,0.385
		C78.457,2.109,74.884,0,70.955,0c-2.429,0-4.759,1.03-6.379,2.813l-0.055,0.059c-0.368,0.287-0.728,0.618-1.1,1.019
		c-0.375,0.291-0.731,0.626-1.062,0.994c-0.406,0.317-0.765,0.651-1.097,1.021c-0.392,0.303-0.756,0.644-1.066,0.999
		c-0.391,0.293-0.763,0.636-1.135,1.049c-0.701,0.555-1.293,1.208-1.779,1.925l-0.167,0.13l-0.061,0.211
		c-0.816,1.336-1.266,2.878-1.266,4.494c0,0-0.035,24.753,0,24.731v0.305c0,0,7.011-6.441,7.011-6.576V8.643
		c0-0.675,0.09-1.328,0.25-1.959c0.435-0.078,0.896-0.125,1.383-0.125c5.158,0,9.354,3.658,9.354,8.153v25.036
		c0,0,6.737-6.336,6.762-6.336c0.132,0,0.24-0.105,0.24-0.24V8.82c0.051-0.044,0.086-0.104,0.086-0.178
		c0-0.675,0.089-1.328,0.25-1.959c0.437-0.079,0.888-0.125,1.383-0.125c5.163,0,9.364,3.658,9.364,8.153v25.094L98.874,33.277z"></path>
</g>
<g id="I1">
<polygon fill="#FFFFFF" points="104.738,7.618 104.709,39.268 110.99,32.885 111.021,1.232 	"></polygon>
</g>
<g id="L">
<polygon fill="#FFFFFF" points="117.322,7.618 117.322,39.268 133.393,39.268 139.674,32.885 123.635,32.885 123.635,1.232 	"></polygon>
</g>
<g id="I2">
<polygon fill="#FFFFFF" points="143.387,7.618 143.357,39.268 149.639,32.885 149.668,1.232 	"></polygon>
</g>
<g id="A2">
<path fill="#FFFFFF" d="M166.391,18.148v-0.345c0-0.066-0.023-0.126-0.07-0.169l0.109-0.109l0.029-9.775l-0.008,0.006
		c0.035-0.343,0.094-0.697,0.188-1.072c0.436-0.079,0.896-0.125,1.385-0.125c5.164,0,9.363,3.657,9.363,8.154v3.436L166.391,18.148
		L166.391,18.148z M165.912,18.044v0.104h-0.105L165.912,18.044z M165.391,6.437c0.025-0.013,0.055-0.023,0.08-0.036
		c-0.012,0.029-0.094,0.104-0.123,0.113C165.363,6.487,165.377,6.462,165.391,6.437 M166.488,5.426
		c0.018-0.01,0.041,0.013,0.033,0.034c-0.023,0.007-0.043,0.015-0.064,0.021C166.467,5.463,166.477,5.443,166.488,5.426
		 M184.014,7.279c-0.738-3.994-4.686-7.039-9.469-7.039c-1.959,0-3.75,0.674-5.178,1.798c-0.426,0.23-0.834,0.5-1.221,0.807
		c-0.408,0.317-0.781,0.664-1.111,1.03c-0.361,0.282-0.725,0.62-1.084,1.007c-0.406,0.319-0.766,0.653-1.096,1.019
		c-0.402,0.324-0.768,0.664-1.078,1.012c-0.41,0.313-0.785,0.662-1.113,1.037c-2.037,1.614-3.225,4.022-3.264,6.615
		c-0.002,0.096-0.086,3.584-0.086,3.584h-0.938l-6.283,6.385h7.222v0.047v0.009v2.823V39.75c0,0,7.076-6.445,7.076-6.579v-8.637
		h10.996V40l6.694-6.28V7.664V7.223L184.014,7.279z"></path>
</g>
<g id="R">
<path fill="#FFFFFF" d="M200.346,7.221c4.914,0.428,8.783,4.554,8.783,9.576c0,0.941-0.141,1.861-0.402,2.737
		c-0.924,0.298-1.896,0.451-2.898,0.451c-0.25,0-0.494-0.019-0.738-0.037c-4.812-0.419-8.611-4.39-8.766-9.273v-0.517
		c0.02-0.865,0.145-1.715,0.385-2.524c0.926-0.297,1.896-0.451,2.9-0.451C199.857,7.183,200.102,7.201,200.346,7.221
		 M207.127,23.529c0.039-0.043,0.084-0.082,0.123-0.127c0.338-0.299,0.645-0.611,0.906-0.926c0.301-0.259,0.59-0.552,0.877-0.888
		c0.398-0.354,0.689-0.649,0.928-0.948c0.305-0.26,0.594-0.551,0.877-0.886c0.361-0.321,0.68-0.646,0.934-0.951
		c0.164-0.143,0.324-0.293,0.479-0.452h0.019v-0.019c0.14-0.146,0.276-0.296,0.412-0.459c0.101-0.116,0.188-0.24,0.282-0.361
		c0.123-0.122,0.242-0.257,0.361-0.39c0.002-0.004,0.004-0.006,0.006-0.01c0.049-0.056,0.103-0.104,0.147-0.161
		c0.642-0.738,1.155-1.563,1.554-2.44c0.018-0.041,0.034-0.084,0.053-0.126c0.113-0.261,0.217-0.527,0.31-0.797
		c0.022-0.071,0.047-0.143,0.067-0.214c0.076-0.246,0.146-0.495,0.201-0.747c0.021-0.085,0.041-0.168,0.06-0.253
		c0.051-0.255,0.092-0.511,0.123-0.77c0.01-0.077,0.022-0.154,0.03-0.233c0.033-0.332,0.056-0.666,0.056-1.002v-0.005V10.36
		c0-5.565-4.533-10.094-10.104-10.094c-0.346,0-0.686,0.021-1.021,0.055c-0.107,0.012-0.217,0.03-0.324,0.046
		c-0.229,0.029-0.457,0.064-0.682,0.109c-0.123,0.027-0.246,0.058-0.369,0.087c-0.205,0.05-0.41,0.106-0.611,0.169
		c-0.127,0.039-0.252,0.08-0.377,0.124c-0.191,0.069-0.383,0.146-0.572,0.227c-0.123,0.053-0.246,0.104-0.367,0.162
		c-0.186,0.086-0.359,0.183-0.541,0.282c-0.119,0.066-0.238,0.126-0.354,0.196c-0.166,0.1-0.324,0.213-0.482,0.323
		c-0.295,0.202-0.58,0.421-0.854,0.655c-0.059,0.048-0.113,0.09-0.168,0.139c-0.014,0.009-0.021,0.02-0.031,0.028
		c-0.082,0.073-0.162,0.147-0.24,0.225c-0.182,0.17-0.355,0.351-0.523,0.544c-0.037,0.044-0.082,0.083-0.121,0.127
		c-0.338,0.299-0.646,0.612-0.908,0.925c-0.301,0.258-0.59,0.55-0.875,0.888c-0.027,0.024-0.049,0.047-0.076,0.071l0.004-3.804
		l-6.912,6.907l-0.025,31l6.908-6.906l0.01-7.473c0.145,0.05,0.289,0.103,0.438,0.146l11.443,13.31l6.225-6.271
		C214.412,32.557,206.959,23.723,207.127,23.529"></path>
</g>
</svg>